<svg
  version="1.2"
  xmlns="http://www.w3.org/2000/svg"
  viewBox="0 0 200 200"
  penrose="0"
>
  <penrose><croppedViewBox>2.5 2.5 195 195</croppedViewBox></penrose>
  <polygon
    fill="#e5e5e5"
    fill-opacity="1"
    stroke="none"
    transform="scale(1)"
    points="181.9,33.7,166.3,25.900000000000006,109.75000000000001,80.5,135.10000000000002,10.300000000000011,117.55,2.5,66.85,22,82.44999999999999,84.4,33.7,47.349999999999994,2.5,101.95,8.350000000000009,168.25,86.35,197.5,64.9,135.1,96.1,127.30000000000001,92.2,185.8,150.7,197.5,197.5,144.85,172.15,113.65"
  >
    <title>`U`.geometry</title>
  </polygon>
  <g>
    <polyline
      fill="none"
      stroke="#000000"
      stroke-opacity="1"
      stroke-width="1.3333333333333333"
      stroke-linecap="round"
      transform="scale(1)"
      points="33.7,47.349999999999994,2.5,101.95,8.350000000000009,168.25,86.35,197.5"
    >
      <title>`U`.poly0</title>
    </polyline>
    <polyline
      fill="none"
      stroke="#000000"
      stroke-opacity="1"
      stroke-width="1.3333333333333333"
      stroke-linecap="round"
      transform="scale(1)"
      points="197.5,144.85,172.15,113.65,181.9,33.7"
    >
      <title>`U`.poly2</title>
    </polyline>
    <title>`U`.dirichletBoundary</title>
  </g>
  <g>
    <clipPath id="roger`St`.domainGeometry-clip">
      <polygon
        fill="none"
        stroke="none"
        transform="scale(1)"
        points="181.9,33.7,166.3,25.900000000000006,109.75000000000001,80.5,135.10000000000002,10.300000000000011,117.55,2.5,66.85,22,82.44999999999999,84.4,33.7,47.349999999999994,2.5,101.95,8.350000000000009,168.25,86.35,197.5,64.9,135.1,96.1,127.30000000000001,92.2,185.8,150.7,197.5,197.5,144.85,172.15,113.65"
      >
        <title>`St`.domainGeometry</title>
      </polygon>
    </clipPath>
    <circle
      fill="#ffffff"
      fill-opacity="1"
      cx="100"
      cy="100"
      stroke="#1b1f8a"
      stroke-opacity="1"
      stroke-width="0.6666666666666666"
      r="49.63889603929564"
      opacity="0.35"
      clip-path="url(#roger`St`.domainGeometry-clip)"
    >
      <title>`St`.ball</title>
    </circle>
    <title>`St`.G</title>
  </g>
  <g>
    <polyline
      fill="none"
      stroke="#000000"
      stroke-opacity="1"
      stroke-width="0.8666666666666667"
      stroke-dasharray="2.66,2.66"
      stroke-linecap="butt"
      transform="scale(1)"
      points="181.9,33.7,166.3,25.900000000000006,109.75000000000001,80.5,135.10000000000002,10.300000000000011,117.55,2.5,66.85,22,82.44999999999999,84.4,33.7,47.349999999999994"
    >
      <title>`U`.poly1</title>
    </polyline>
    <polyline
      fill="none"
      stroke="#000000"
      stroke-opacity="1"
      stroke-width="0.8666666666666667"
      stroke-dasharray="2.66,2.66"
      stroke-linecap="butt"
      transform="scale(1)"
      points="86.35,197.5,64.9,135.1,96.1,127.30000000000001,92.2,185.8,150.7,197.5,197.5,144.85"
    >
      <title>`U`.poly3</title>
    </polyline>
    <title>`U`.neumannBoundary</title>
  </g>
  <g>
    <circle
      fill="none"
      cx="100"
      cy="100"
      stroke="#ff6666"
      stroke-opacity="1"
      stroke-width="1"
      r="73.27179228826616"
    >
      <title>`St`.dirichletBall</title>
    </circle>
    <circle
      fill="#ffffff"
      fill-opacity="1"
      cx="172.73294255568584"
      cy="108.86987104337632"
      stroke="#ff6666"
      stroke-opacity="1"
      stroke-width="0.6666666666666666"
      r="2"
    >
      <title>`St`.dirichletPoint</title>
    </circle>
    <g fill="none">
      <line
        x1="100"
        y1="100"
        x2="173.27179228826617"
        y2="100"
        stroke="#ff6666"
        stroke-opacity="1"
        stroke-width="1"
      ></line>
      <title>`St`.dirichletLine</title>
    </g>
    <title>`St`.closestDirichlet</title>
  </g>
  <g>
    <circle
      fill="none"
      cx="100"
      cy="100"
      stroke="#6666ff"
      stroke-opacity="1"
      stroke-width="1"
      r="49.63889603929564"
    >
      <title>`St`.neumannBall</title>
    </circle>
    <circle
      fill="#ffffff"
      fill-opacity="1"
      cx="64.9"
      cy="135.1"
      stroke="#6666ff"
      stroke-opacity="1"
      stroke-width="0.6666666666666666"
      r="2"
    >
      <title>`St`.neumannPoint</title>
    </circle>
    <g fill="none">
      <line
        x1="100"
        y1="100"
        x2="50.36110396070436"
        y2="100"
        stroke="#6666ff"
        stroke-opacity="1"
        stroke-width="1"
      ></line>
      <title>`St`.neumannLine</title>
    </g>
    <title>`St`.closestSilhouette</title>
  </g>
  <circle fill="#000000" fill-opacity="1" cx="100" cy="100" stroke="none" r="2">
    <title>`x`.dot</title>
  </circle>
  <text
    fill="#000000"
    fill-opacity="1"
    width="7.626475999999999"
    height="6.039849"
    x="108.7191102084688"
    y="105.10355646376523"
    alignment-baseline="alphabetic"
    dominant-baseline="alphabetic"
    text-anchor="middle"
  >
    $x$
  </text>
  <text
    fill="#6666ff"
    fill-opacity="1"
    width="47.9001358"
    height="11.3570494"
    x="75.18055198035218"
    y="93.57449628600705"
    alignment-baseline="alphabetic"
    dominant-baseline="alphabetic"
    text-anchor="middle"
  >
    \contour{white}{$d_{\text{silhouette}}$}
  </text>
  <text
    fill="#ff6666"
    fill-opacity="1"
    width="44.082897900000006"
    height="11.3570494"
    x="136.63589614413308"
    y="93.57449563623972"
    alignment-baseline="alphabetic"
    dominant-baseline="alphabetic"
    text-anchor="middle"
  >
    \contour{white}{$d_{\text{Dirichlet}}$}
  </text>
  <text
    fill="#000000"
    fill-opacity="1"
    width="9.626426"
    height="9.386432"
    x="165.09587973659202"
    y="170.44978967373896"
    alignment-baseline="alphabetic"
    dominant-baseline="alphabetic"
    text-anchor="middle"
  >
    $\Omega$
  </text>
  <text
    fill="#9397c6"
    fill-opacity="1"
    width="30.599235"
    height="13.333"
    x="85.31528054797079"
    y="123.33940112526514"
    alignment-baseline="alphabetic"
    dominant-baseline="alphabetic"
    text-anchor="middle"
  >
    $\text{St}(x)$
  </text>
</svg>
